<?xml version="1.0" encoding="utf-8" ?>
<svg baseProfile="tiny" height="267.0" version="1.2" viewBox="0 0 788.0 267.0" width="788.0" xmlns="http://www.w3.org/2000/svg" xmlns:ev="http://www.w3.org/2001/xml-events" xmlns:xlink="http://www.w3.org/1999/xlink"><defs /><g id="NCHDL_inst" opacity="0"><svg baseProfile="tiny" height="250.7" version="1.2" viewBox="0 0 366.8 250.7" width="366.8" xmlns="http://www.w3.org/2000/svg" xmlns:ev="http://www.w3.org/2001/xml-events" xmlns:xlink="http://www.w3.org/1999/xlink"><defs /><g transform="translate(100,100) "><g id="NCHDL"><rect fill="green" fill-opacity="0.6" height="8.6" stroke="green" stroke-width="0.1" width="34.4" x="-17.2" y="-4.3" /><rect fill="green" fill-opacity="0.6" height="8.6" stroke="green" stroke-width="0.1" width="34.4" x="-17.2" y="4.3" /><rect fill="yellow" fill-opacity="0.6" height="4.0" stroke="yellow" stroke-width="0.1" width="4.0" x="-10.6" y="6.6" /><rect fill="yellow" fill-opacity="0.6" height="4.0" stroke="yellow" stroke-width="0.1" width="4.0" x="6.6" y="6.6" /><rect fill="green" fill-opacity="0.6" height="8.6" stroke="green" stroke-width="0.1" width="25.8" x="111.8" y="4.3" /><rect fill="yellow" fill-opacity="0.6" height="4.0" stroke="yellow" stroke-width="0.1" width="4.0" x="118.4" y="6.6" /><rect fill="yellow" fill-opacity="0.6" height="4.0" stroke="yellow" stroke-width="0.1" width="4.0" x="128.4" y="6.6" /><rect fill="green" fill-opacity="0.6" height="8.6" stroke="green" stroke-width="0.1" width="34.4" x="-17.2" y="12.9" /><rect fill="green" fill-opacity="0.6" height="8.6" stroke="green" stroke-width="0.1" width="25.8" x="111.8" y="12.9" /><rect fill="green" fill-opacity="0.6" height="8.6" stroke="green" stroke-width="0.1" width="34.4" x="-17.2" y="21.5" /><rect fill="yellow" fill-opacity="0.6" height="4.0" stroke="yellow" stroke-width="0.1" width="4.0" x="-10.6" y="23.8" /><rect fill="yellow" fill-opacity="0.6" height="4.0" stroke="yellow" stroke-width="0.1" width="4.0" x="6.6" y="23.8" /><rect fill="green" fill-opacity="0.6" height="8.6" stroke="green" stroke-width="0.1" width="25.8" x="111.8" y="21.5" /><rect fill="yellow" fill-opacity="0.6" height="4.0" stroke="yellow" stroke-width="0.1" width="4.0" x="118.4" y="23.8" /><rect fill="yellow" fill-opacity="0.6" height="4.0" stroke="yellow" stroke-width="0.1" width="4.0" x="128.4" y="23.8" /><rect fill="green" fill-opacity="0.6" height="8.6" stroke="green" stroke-width="0.1" width="34.4" x="-17.2" y="30.1" /><rect fill="red" fill-opacity="0.6" height="3.0" stroke="red" stroke-width="0.1" width="111.8" x="51.6" y="-1.5" /><rect fill="red" fill-opacity="0.6" height="6.0" stroke="red" stroke-width="0.1" width="25.8" x="51.6" y="14.2" /><rect fill="yellow" fill-opacity="0.6" height="4.0" stroke="yellow" stroke-width="0.1" width="4.0" x="53.9" y="15.2" /><rect fill="yellow" fill-opacity="0.6" height="4.0" stroke="yellow" stroke-width="0.1" width="4.0" x="71.1" y="15.2" /><rect fill="red" fill-opacity="0.6" height="3.0" stroke="red" stroke-width="0.1" width="86.0" x="77.4" y="15.7" /><rect fill="red" fill-opacity="0.6" height="3.0" stroke="red" stroke-width="0.1" width="111.8" x="51.6" y="32.9" /><rect fill="blue" fill-opacity="0.6" height="8.6" stroke="blue" stroke-width="0.1" width="34.4" x="-17.2" y="-4.3" /><rect fill="blue" fill-opacity="0.6" height="8.6" stroke="blue" stroke-width="0.1" width="34.4" x="-17.2" y="4.3" /><rect fill="blue" fill-opacity="0.6" height="6.0" stroke="blue" stroke-width="0.1" width="34.4" x="103.2" y="5.6" /><rect fill="blue" fill-opacity="0.6" height="8.6" stroke="blue" stroke-width="0.1" width="34.4" x="-17.2" y="12.9" /><rect fill="blue" fill-opacity="0.6" height="6.0" stroke="blue" stroke-width="0.1" width="34.4" x="43.0" y="14.2" /><rect fill="blue" fill-opacity="0.6" height="8.6" stroke="blue" stroke-width="0.1" width="34.4" x="-17.2" y="21.5" /><rect fill="blue" fill-opacity="0.6" height="6.0" stroke="blue" stroke-width="0.1" width="34.4" x="103.2" y="22.8" /><rect fill="blue" fill-opacity="0.6" height="8.6" stroke="blue" stroke-width="0.1" width="34.4" x="-17.2" y="30.1" /></g></g></svg></g><g id="cut_M1M2_2x1_inst" opacity="0"><svg baseProfile="tiny" height="217.0" version="1.2" viewBox="0 0 246.0 217.0" width="246.0" xmlns="http://www.w3.org/2000/svg" xmlns:ev="http://www.w3.org/2001/xml-events" xmlns:xlink="http://www.w3.org/1999/xlink"><defs /><g transform="translate(100,100) "><g id="cut_M1M2_2x1"><rect fill="blue" fill-opacity="0.6" height="17.0" stroke="blue" stroke-width="0.1" width="46.0" x="0.0" y="0.0" /><rect fill="goldenrod" fill-opacity="0.6" height="17.0" stroke="goldenrod" stroke-width="0.1" width="46.0" x="0.0" y="0.0" /></g></g></svg></g><g transform="translate(100,100) "><g id="ROUTE_STRAP_VERTICAL"><use transform="translate(0.0,0.0)" xlink:href="#NCHDL" /><use transform="translate(196.0,0.0)" xlink:href="#NCHDL" /><use transform="translate(392.0,0.0)" xlink:href="#NCHDL" /><text fill="black" font-size="8" x="495.2" y="40.8">A</text><text fill="black" font-size="8" x="103.2" y="40.8">B1</text><text fill="black" font-size="8" x="299.2" y="40.8">B2</text><use transform="translate(103.2,22.8)" xlink:href="#cut_M1M2_2x1" /><use transform="translate(299.2,22.8)" xlink:href="#cut_M1M2_2x1" /><use transform="translate(495.2,22.8)" xlink:href="#cut_M1M2_2x1" /></g></g></svg>